<svg xmlns="http://www.w3.org/2000/svg" width="1678" height="409" viewBox="0 0 1678 409"><title>01 logo primary navy</title><path d="M0 0 C3.76 1.45 4.86 3.03 6.52 6.64 C6.98 7.62 7.44 8.59 7.91 9.59 C8.4 10.67 8.89 11.74 9.38 12.81 C9.89 13.93 10.41 15.04 10.94 16.15 C12.05 18.52 13.16 20.9 14.26 23.28 C16.9 28.94 19.62 34.56 22.34 40.19 C23.25 42.06 24.16 43.94 25.06 45.82 C28.36 52.64 31.7 59.44 35.11 66.21 C38.29 72.54 41.33 78.94 44.38 85.33 C48.49 93.95 52.64 102.54 56.81 111.12 C58.19 113.96 59.57 116.8 60.95 119.64 C61.29 120.34 61.63 121.04 61.98 121.77 C66.83 131.76 71.66 141.77 76.48 151.78 C78.15 155.23 79.81 158.68 81.48 162.13 C87.92 175.42 94.26 188.76 100.45 202.17 C100.98 203.31 101.5 204.45 102.03 205.6 C102.29 206.15 102.54 206.7 102.8 207.27 C104.37 210.67 105.97 214.06 107.59 217.43 C107.97 218.23 108.35 219.02 108.75 219.84 C109.43 221.27 110.12 222.7 110.82 224.12 C112.18 226.96 113 228.81 113 232 C105.54 232.3 98.09 232.53 90.62 232.67 C87.16 232.74 83.7 232.83 80.23 232.98 C76.89 233.12 73.54 233.2 70.2 233.23 C68.92 233.26 67.65 233.3 66.38 233.37 C62.33 233.59 58.83 233.53 55 232 C50.71 226.7 49.28 220.17 47.55 213.69 C43.09 197.13 43.09 197.13 37 192 C27.04 186.8 13.68 188.49 2.86 188.98 C-0.54 189.09 -3.93 189.02 -7.33 188.96 C-31.87 188.6 -31.87 188.6 -38.36 193.94 C-41.89 198.7 -43.34 203.87 -44.48 209.61 C-45.17 212.76 -46.33 215.22 -47.81 218.07 C-48.19 218.86 -48.56 219.65 -48.94 220.46 C-49.29 221.2 -49.64 221.93 -50 222.69 C-50.38 223.5 -50.76 224.3 -51.15 225.13 C-51.51 225.9 -51.88 226.66 -52.25 227.45 C-52.56 228.11 -52.88 228.78 -53.2 229.46 C-54 231 -54 231 -55 232 C-56.78 232.09 -58.56 232.12 -60.35 232.11 C-61.49 232.11 -62.63 232.11 -63.8 232.11 C-65.06 232.11 -66.31 232.1 -67.57 232.1 C-68.84 232.1 -70.12 232.09 -71.4 232.09 C-74.76 232.09 -78.13 232.08 -81.49 232.07 C-84.92 232.06 -88.36 232.05 -91.79 232.05 C-98.52 232.04 -105.26 232.02 -112 232 C-111.23 227.7 -109.78 224.18 -107.79 220.32 C-107.63 220 -107.63 220 -106.81 218.38 C-106.11 217 -105.41 215.63 -104.72 214.26 C-102.87 210.65 -101.05 207.02 -99.22 203.4 C-98.86 202.68 -98.49 201.96 -98.12 201.21 C-95.02 195.07 -92.02 188.9 -89.06 182.69 C-88.84 182.23 -88.84 182.23 -87.74 179.91 C-85.69 175.58 -83.65 171.26 -81.61 166.93 C-77.2 157.58 -72.69 148.29 -68.04 139.06 C-62.26 127.59 -56.58 116.07 -51 104.5 C-46.7 95.59 -42.36 86.69 -37.92 77.85 C-34.6 71.22 -31.35 64.55 -28.12 57.88 C-27.83 57.26 -27.53 56.64 -27.22 56.01 C-22.82 46.9 -18.57 37.74 -14.42 28.51 C-11.91 22.93 -9.3 17.41 -6.56 11.94 C-6.24 11.3 -5.93 10.66 -5.6 10.01 C-3.86 6.58 -2.02 3.27 0 0 Z M0 104 C-1.02 105.96 -1.96 107.93 -2.88 109.94 C-3.17 110.58 -3.47 111.22 -3.77 111.89 C-4.86 114.25 -5.93 116.63 -7 119 C-7.46 120.02 -7.92 121.04 -8.39 122.08 C-9.64 124.87 -10.89 127.65 -12.13 130.44 C-12.62 131.56 -13.12 132.68 -13.62 133.79 C-14.33 135.38 -15.04 136.98 -15.74 138.57 C-16.15 139.5 -16.56 140.42 -16.99 141.38 C-18 144 -18 144 -19 149 C-6.13 149 6.74 149 20 149 C16.63 137.75 16.63 137.75 14.73 133.67 C14.52 133.22 14.52 133.22 13.48 130.96 C13.06 130.04 12.63 129.13 12.19 128.19 C11.75 127.23 11.3 126.28 10.85 125.29 C9.97 123.4 9.09 121.51 8.21 119.61 C7.14 117.31 6.09 115 5.05 112.68 C4.77 112.07 4.49 111.46 4.21 110.83 C3.49 109.24 2.77 107.66 2.06 106.07 C1.71 105.39 1.36 104.7 1 104 C0.67 104 0.34 104 0 104 Z " fill="#082438" transform="translate(389,12)" />
<path d="M0 0 C19.47 0 38.94 0 59 0 C59.33 27.06 59.66 54.12 60 82 C73.69 82.16 73.69 82.16 143 83 C143 55.61 143 28.22 143 0 C162.47 0 181.94 0 202 0 C202 74.25 202 148.5 202 225 C182.53 225 163.06 225 143 225 C143 193.65 143 162.3 143 130 C115.28 130 87.56 130 59 130 C59 161.35 59 192.7 59 225 C39.53 225 20.06 225 0 225 C0 150.75 0 76.5 0 0 Z " fill="#082438" transform="translate(12,19)" />
<path d="M0 0 C124.6 0 124.6 0 148.41 23.38 C149.28 24.25 150.14 25.12 151 26 C151.61 26.61 152.21 27.21 152.84 27.84 C163.34 39.2 169.55 55.58 170 71 C170.05 71.72 170.1 72.45 170.15 73.2 C170.85 90.2 165.18 108.06 153.96 120.9 C153.63 121.25 153.63 121.25 152 123 C151.45 123.63 150.89 124.26 150.32 124.91 C144.22 131.53 136.6 136.41 128 139 C133.27 146.98 138.65 154.89 144.07 162.78 C147.96 168.46 151.8 174.18 155.61 179.93 C157.88 183.34 160.19 186.72 162.56 190.06 C165.66 194.44 168.55 198.93 171.43 203.45 C174.84 208.79 178.35 214.05 181.9 219.29 C185 223.89 185 223.89 185 225 C175.14 226.74 165.03 226.3 155.05 226.35 C152.55 226.36 150.06 226.39 147.56 226.43 C143.95 226.49 140.35 226.51 136.74 226.52 C136.18 226.53 136.18 226.53 133.35 226.59 C125.64 226.57 125.64 226.57 122.41 223.7 C121.95 222.81 121.48 221.92 121 221 C120.59 220.38 120.17 219.75 119.74 219.11 C119.39 218.52 119.03 217.92 118.66 217.31 C118.45 216.97 118.45 216.97 117.4 215.23 C116.96 214.49 116.52 213.76 116.06 213 C115.08 211.38 114.1 209.75 113.11 208.13 C112.6 207.29 112.09 206.44 111.56 205.58 C106.77 197.68 101.87 189.85 97 182 C96.35 180.95 95.69 179.89 95.04 178.84 C93.36 176.13 91.67 173.42 89.99 170.71 C89.34 169.67 88.69 168.63 88.04 167.58 C84.81 162.37 81.57 157.22 77.85 152.34 C77 151 77 151 77 149 C71.39 149 65.78 149 60 149 C59.67 174.08 59.34 199.16 59 225 C39.53 225 20.06 225 0 225 C0 150.75 0 76.5 0 0 Z M59 45 C58.98 52.94 58.96 60.87 58.95 68.81 C58.94 72.49 58.94 76.18 58.92 79.86 C58.91 83.42 58.91 86.97 58.91 90.52 C58.9 91.88 58.9 93.24 58.89 94.6 C58.89 96.49 58.89 98.39 58.89 100.29 C58.88 101.37 58.88 102.45 58.88 103.56 C59 106 59 106 60 107 C74.28 108.15 90.68 109.14 102.5 99.81 C108.79 93.64 112.06 86.53 112.24 77.77 C112.28 67.27 110.97 59.89 103.42 52.02 C95.12 45.1 85.36 44.15 75 44 C74.44 43.99 74.44 43.99 71.59 43.92 C67.18 43.86 63.27 43.86 59 45 Z " fill="#082438" transform="translate(574,19)" />
<path d="M0 0 C50.16 0 100.32 0 152 0 C152 16.5 152 33 152 50 C144.12 51.12 144.12 51.12 140.53 51.11 C139.73 51.11 138.93 51.11 138.11 51.11 C137.27 51.11 136.43 51.1 135.57 51.1 C135.13 51.1 135.13 51.1 132.91 51.09 C130.12 51.09 127.34 51.08 124.56 51.06 C122.67 51.06 120.77 51.05 118.88 51.05 C114.25 51.04 109.63 51.02 105 51 C105 51.9 105 52.79 105 53.71 C105.02 75.48 105.04 97.24 105.05 119.01 C105.06 129.53 105.06 140.06 105.08 150.58 C105.09 159.75 105.09 168.92 105.09 178.09 C105.1 182.95 105.1 187.81 105.11 192.67 C105.11 197.24 105.11 201.81 105.11 206.37 C105.11 208.05 105.12 209.74 105.12 211.42 C105.12 213.7 105.12 215.99 105.12 218.27 C105.12 218.95 105.13 219.62 105.13 220.32 C105.11 224.89 105.11 224.89 104 226 C85.19 226 66.38 226 47 226 C47 168.25 47 110.5 47 51 C32.15 51 17.3 51 2 51 C1.34 50.67 0.68 50.34 0 50 C0 33.5 0 17 0 0 Z " fill="#082438" transform="translate(808,19)" />
<path d="M0 0 C19.47 0 38.94 0 59 0 C59 59.4 59 118.8 59 180 C78.8 180 98.6 180 119 180 C127.58 180.33 136.16 180.66 145 181 C145.77 184.08 146.12 186.07 146.11 189.13 C146.11 189.93 146.11 190.73 146.11 191.55 C146.11 192.41 146.1 193.26 146.1 194.14 C146.1 194.58 146.1 194.58 146.09 196.81 C146.09 199.63 146.08 202.44 146.06 205.25 C146.06 207.16 146.05 209.07 146.05 210.98 C146.04 215.65 146.02 220.33 146 225 C122.25 225.91 98.53 226.16 74.77 226.13 C70 226.12 65.23 226.13 60.46 226.13 C56.68 226.14 52.9 226.14 49.12 226.13 C47.37 226.13 45.61 226.13 43.85 226.14 C29.2 226.15 14.66 225.56 0 225 C0 150.75 0 76.5 0 0 Z " fill="#082438" transform="translate(1042,19)" />
<path d="M0 0 C43.89 0 87.78 0 133 0 C133 14.52 133 29.04 133 44 C108.91 44.33 84.82 44.66 60 45 C60 58.53 60 72.06 60 86 C81.78 86 103.56 86 126 86 C126.67 89.35 127.13 91.76 127.13 95.04 C127.13 95.8 127.14 96.55 127.14 97.33 C127.14 97.74 127.14 97.74 127.13 99.77 C127.13 100.6 127.13 101.43 127.14 102.29 C127.14 104.05 127.13 105.8 127.13 107.56 C127.12 110.25 127.13 112.95 127.14 115.65 C127.14 117.35 127.13 119.06 127.13 120.77 C127.13 121.58 127.14 122.39 127.14 123.22 C127.14 123.59 127.14 123.59 127.13 125.48 C127.13 126.14 127.13 126.79 127.13 127.47 C127 129 127 129 126 130 C123.93 130.09 121.9 130.13 119.83 130.11 C119.18 130.11 118.54 130.11 117.88 130.11 C115.74 130.11 113.6 130.11 111.46 130.1 C109.99 130.1 108.51 130.09 107.03 130.09 C103.13 130.09 99.23 130.08 95.34 130.07 C90.66 130.06 85.99 130.05 81.32 130.05 C74.21 130.04 67.11 130.02 60 130 C60 146.5 60 163 60 180 C65.5 179.99 71 179.98 76.67 179.96 C80.15 179.96 83.64 179.95 87.13 179.95 C92.66 179.95 98.19 179.94 103.72 179.92 C108.19 179.91 112.65 179.91 117.11 179.91 C118.81 179.9 120.51 179.9 122.21 179.89 C124.6 179.89 126.98 179.89 129.36 179.89 C130.07 179.88 130.77 179.88 131.49 179.88 C132.15 179.88 132.8 179.88 133.48 179.88 C133.76 179.88 133.76 179.88 135.18 179.88 C137.48 180.03 139.74 180.55 142 181 C142 195.52 142 210.04 142 225 C138.03 225.66 134.9 226.13 131 226.13 C130.05 226.13 129.09 226.13 128.1 226.14 C127.07 226.13 126.04 226.13 124.97 226.13 C123.87 226.13 122.77 226.13 121.63 226.13 C118.62 226.14 115.61 226.14 112.59 226.13 C109.42 226.13 106.24 226.13 103.07 226.14 C97.72 226.14 92.38 226.14 87.03 226.13 C80.9 226.12 74.77 226.13 68.64 226.13 C63.34 226.14 58.05 226.14 52.75 226.13 C49.6 226.13 46.46 226.13 43.31 226.14 C29.17 226.15 15.11 225.94 1 225 C0.24 222.28 -0.12 219.87 -0.12 217.06 C-0.13 216.28 -0.13 215.5 -0.13 214.7 C-0.13 213.85 -0.12 213 -0.12 212.13 C-0.12 211.22 -0.12 210.32 -0.12 209.38 C-0.12 206.34 -0.12 203.3 -0.11 200.26 C-0.11 198.08 -0.11 195.9 -0.11 193.73 C-0.11 189.03 -0.11 184.34 -0.11 179.65 C-0.1 172.86 -0.09 166.08 -0.09 159.3 C-0.09 148.29 -0.08 137.28 -0.08 126.28 C-0.07 115.59 -0.06 104.89 -0.05 94.2 C-0.05 93.54 -0.05 92.87 -0.05 92.18 C-0.05 86.98 -0.05 81.77 -0.05 76.56 C-0.04 51.04 -0.02 25.52 0 0 Z " fill="#082438" transform="translate(1260,19)" />
<path d="M0 0 C7.42 -0.33 14.84 -0.57 22.27 -0.73 C25.72 -0.8 29.17 -0.9 32.62 -1.06 C54.74 -2.05 54.74 -2.05 59.95 1.23 C62.92 4.38 64.22 8.03 65.41 12.14 C66.31 14.99 67.82 17.4 69.35 19.96 C70.44 21.91 71.53 23.86 72.62 25.81 C73.22 26.88 73.82 27.95 74.42 29.02 C75.35 30.68 76.28 32.34 77.2 34 C79.66 38.39 82.11 42.77 84.57 47.15 C86.62 50.81 88.67 54.47 90.71 58.12 C92.83 61.92 94.96 65.71 97.1 69.5 C98.03 71.15 98.95 72.79 99.88 74.44 C100.3 75.18 100.72 75.93 101.16 76.7 C101.35 77.04 101.35 77.04 102.3 78.75 C102.63 79.33 102.96 79.92 103.3 80.52 C104 82 104 82 104 84 C104.66 84 105.32 84 106 84 C106.72 82.36 107.38 80.68 108 79 C108.76 77.49 109.55 75.99 110.36 74.51 C110.6 74.08 110.6 74.08 111.78 71.91 C112.29 70.99 112.79 70.07 113.31 69.12 C113.84 68.16 114.37 67.19 114.92 66.19 C119.24 58.32 123.68 50.51 128.13 42.71 C132.55 34.9 136.73 26.98 140.78 18.97 C141.66 17.25 142.56 15.54 143.48 13.84 C144.49 11.96 145.44 10.05 146.35 8.11 C150.3 0.58 150.3 0.58 154.83 -0.96 C158.3 -1.27 161.68 -1.24 165.15 -1.07 C166.42 -1.05 167.69 -1.04 168.96 -1.03 C172.27 -0.99 175.59 -0.88 178.9 -0.76 C182.3 -0.64 185.69 -0.59 189.08 -0.54 C195.72 -0.42 202.36 -0.23 209 0 C203.98 10.2 198.78 20.26 193.25 30.19 C192.55 31.46 191.84 32.73 191.14 34 C186.69 42.03 182.16 50.02 177.57 57.97 C172.97 65.98 168.54 74.08 164.1 82.18 C158.85 91.75 153.45 101.23 147.87 110.62 C146.83 112.38 145.81 114.14 144.8 115.91 C143.59 118.02 142.31 120.05 140.96 122.08 C134.06 132.99 133.87 142.95 134 155.59 C133.99 157.63 133.98 159.67 133.97 161.71 C133.94 167.04 133.96 172.36 133.99 177.68 C134.01 184.09 133.98 190.5 133.95 196.91 C133.92 206.61 133.97 216.3 134 226 C124.27 225.83 124.27 225.83 75 225 C75.08 218.64 75.16 212.27 75.24 205.72 C75.26 201.64 75.28 197.55 75.28 193.47 C75.28 187.02 75.3 180.57 75.41 174.12 C76.11 129.28 76.11 129.28 62.68 111.34 C59.75 107.26 57.42 102.83 55 98.44 C54.02 96.72 53.03 95 52.04 93.29 C44.41 80.04 36.93 66.71 29.52 53.34 C26.92 48.66 24.31 43.98 21.69 39.31 C21.33 38.68 20.98 38.05 20.62 37.41 C18.32 33.32 16 29.24 13.69 25.17 C12.81 23.62 11.93 22.08 11.06 20.53 C10.21 19.04 9.36 17.55 8.52 16.07 C7.99 15.14 7.46 14.21 6.92 13.25 C6.45 12.43 5.99 11.61 5.5 10.77 C3.58 7.22 1.78 3.62 0 0 Z " fill="#082438" transform="translate(1457,19)" />
<path d="M0 0 C0.97 -0.01 1.94 -0.03 2.93 -0.04 C6.8 0.3 6.8 0.3 8.56 2.19 C8.67 4.64 8.06 6.77 7.56 9.19 C6.79 9.16 6.02 9.14 5.23 9.12 C4.73 9.11 4.73 9.11 2.19 9.06 C1.19 9.04 0.19 9.02 -0.84 8.99 C-3.44 9.19 -3.44 9.19 -5.44 11.19 C-5.85 12.88 -5.85 12.88 -6.07 14.88 C-6.15 15.6 -6.24 16.31 -6.32 17.05 C-6.4 17.8 -6.48 18.54 -6.56 19.31 C-6.65 20.07 -6.74 20.82 -6.82 21.6 C-7.04 23.46 -7.24 25.32 -7.44 27.19 C-3.15 27.19 1.14 27.19 5.56 27.19 C5.56 29.83 5.56 32.47 5.56 35.19 C1.27 35.19 -3.02 35.19 -7.44 35.19 C-7.44 49.05 -7.44 62.91 -7.44 77.19 C-10.41 77.19 -13.38 77.19 -16.44 77.19 C-16.44 63.33 -16.44 49.47 -16.44 35.19 C-17.76 35.02 -17.76 35.02 -24.44 34.19 C-24.48 32.19 -24.48 30.19 -24.44 28.19 C-23.44 27.19 -23.44 27.19 -21.81 27.09 C-20.02 27.12 -18.23 27.15 -16.44 27.19 C-16.48 26.35 -16.53 25.52 -16.58 24.66 C-16.83 16.96 -16.69 9.75 -11.13 3.79 C-7.41 0.69 -4.75 0.03 0 0 Z " fill="#082438" transform="translate(589.4375,296.8125)" />
<path d="M0 0 C2.64 0 5.28 0 8 0 C8.33 15.51 8.66 31.02 9 47 C16.79 40.32 16.79 40.32 19.61 37.1 C19.92 36.77 19.92 36.77 21.46 35.09 C22.7 33.73 23.93 32.35 25.13 30.95 C29.68 26.1 29.68 26.1 33.71 25.78 C36.2 26.03 38.56 26.41 41 27 C38.12 30.42 35.24 33.79 32.08 36.96 C31.58 37.48 31.07 38 30.55 38.54 C29.52 39.59 28.48 40.63 27.43 41.65 C26 43.13 26 43.13 24 46 C24.66 50.82 28.82 54.97 31.75 58.75 C36.05 64.38 40.21 70.01 44 76 C40.04 76.96 36.94 77.12 33 76 C29 72.68 26.13 68.18 23.27 63.88 C21.56 61.35 19.74 58.91 17.91 56.47 C17 55 17 55 17 53 C13.65 54.89 11.23 56.84 9 60 C7.7 65.2 7.9 70.67 8 76 C5.03 76 2.06 76 -1 76 C-1.12 50.64 -0.95 25.34 0 0 Z " fill="#082438" transform="translate(1030,298)" />
<path d="M0 0 C2.36 2.13 4.26 4.35 6 7 C4.35 8.65 2.7 10.3 1 12 C-2.55 10.29 -5.79 8.26 -9.1 6.12 C-14.88 2.71 -22.9 3.26 -29.35 4.43 C-35.57 6.45 -41.05 10.67 -44.36 16.32 C-48.45 25.3 -49.55 34.15 -46.44 43.69 C-43.83 50.03 -40.6 55.02 -34.49 58.38 C-26.1 61.81 -18.11 62.41 -9.56 59.25 C-5.95 57.66 -3.74 55.84 -1 53 C1.71 53.08 2.73 53.76 4.75 55.56 C5.16 56.04 5.57 56.51 6 57 C3.9 62.68 -1 65.75 -6.25 68.31 C-15.9 71.89 -29.05 71.64 -38.47 67.52 C-48.83 61.31 -55.38 53.06 -58.38 41.25 C-59.97 31.5 -59.13 20.59 -54 12 C-46.67 2.18 -39.38 -3.14 -27.36 -5.55 C-17.56 -6.85 -8.57 -4.99 0 0 Z " fill="#082438" transform="translate(467,305)" />
<path d="M0 0 C0.66 0.66 1.32 1.32 2 2 C0.03 3.97 -1.93 5.93 -3.91 7.89 C-5.12 9.11 -6.31 10.35 -7.43 11.64 C-8.62 13 -8.62 13 -11 15 C-14.15 15.12 -14.15 15.12 -17 15 C-15.9 13.06 -14.8 11.12 -13.69 9.19 C-13.38 8.64 -13.07 8.09 -12.75 7.53 C-9.03 1.06 -7.38 -0.67 0 0 Z " fill="#082438" transform="translate(654,300)" />
<path d="M0 0 C4.91 2.91 6.91 6.28 8.44 11.69 C8.89 16.72 7.33 21.83 4.39 25.92 C1.51 28.95 -1.94 31.24 -5.5 33.38 C-6.16 33.38 -6.82 33.38 -7.5 33.38 C-2.46 39.7 2.6 45.81 8.5 51.38 C8.91 50.42 9.33 49.47 9.75 48.5 C13.24 40.98 13.24 40.98 15.5 38.38 C18.55 37.51 20.65 38.09 23.5 39.38 C23.11 40.65 22.71 41.92 22.31 43.19 C22.06 44.01 21.8 44.83 21.54 45.68 C20.5 48.38 20.5 48.38 18.87 51.07 C17.17 53.94 15.99 56.06 15.5 59.38 C17.39 62.6 19.5 64.81 22.26 67.28 C24.5 69.38 24.5 69.38 25.5 72.38 C15.66 73.31 15.66 73.31 12.8 71 C11.56 69.31 11.56 69.31 10.6 67.59 C10.24 67.19 9.87 66.79 9.5 66.38 C6.38 66.64 4.33 68.04 1.81 69.81 C-5.51 74.48 -13.07 75.22 -21.5 73.38 C-28.01 71.32 -33 67.24 -36.5 61.38 C-38.29 55.66 -37.85 50.11 -35.72 44.55 C-32.71 39.19 -28.11 34.87 -22.5 32.38 C-23.38 30.02 -24.29 27.74 -25.52 25.54 C-28.2 20.73 -29.53 16.88 -28.5 11.38 C-26.84 5.79 -24.03 2.04 -18.91 -0.78 C-12.74 -2.95 -5.97 -2.64 0 0 Z M-18.5 8.38 C-20.54 11.71 -20.89 14.66 -20.17 18.52 C-18.84 22.18 -16.54 24.97 -13.5 27.38 C-10.38 27.77 -9.14 26.85 -6.67 25.02 C-1.83 21.03 -1.83 21.03 -0.5 18.38 C-0.11 14.27 -0.08 12.21 -1.94 8.5 C-6.89 4.39 -13.58 3.9 -18.5 8.38 Z M-20.94 40.62 C-21.74 41.23 -22.54 41.83 -23.37 42.45 C-26.22 45.02 -27.28 46.97 -27.87 50.74 C-27.98 55.03 -28.06 58.37 -25.38 61.88 C-21.77 65.45 -17.71 66.42 -12.75 66.81 C-7.54 66.68 -2.65 64.45 1.5 61.38 C2.6 59.56 2.6 59.56 2.5 57.38 C0.9 55.25 -0.64 53.49 -2.5 51.62 C-3.52 50.56 -4.54 49.5 -5.55 48.44 C-6.06 47.92 -6.56 47.4 -7.08 46.87 C-9.58 44.24 -11.91 41.47 -14.26 38.7 C-14.67 38.26 -15.08 37.83 -15.5 37.38 C-17.55 37.38 -19.4 39.45 -20.94 40.62 Z " fill="#082438" transform="translate(781.5,301.625)" />
<path d="M0 0 C33 0 33 0 41 4 C46.58 9.82 47.35 14.01 47.29 22.05 C46.88 26.25 45.85 27.91 43 31 C41.68 32.02 40.35 33.02 39 34 C39.61 34.42 40.23 34.85 40.86 35.29 C45.85 38.9 49.75 41.77 51 48 C51.79 53.68 50.98 59.06 48 64 C44.03 68.37 40.51 70.79 35 73 C23.45 73 11.9 73 0 73 C0 48.91 0 24.82 0 0 Z M9 8 C8.21 15.31 7.54 22.65 8 30 C10.28 32.28 15.56 31.28 18.62 31.31 C19.52 31.34 20.41 31.37 21.32 31.4 C27.13 31.46 31.43 30.77 36 27 C38.4 23.4 38.23 20.07 37.52 15.93 C36.65 12.71 35.55 11.16 33 9 C25.18 6.06 17.07 6.66 9 8 Z M9 39 C8.25 44.86 7.84 50.6 7.88 56.5 C7.87 57.21 7.87 57.93 7.86 58.66 C7.87 63.87 7.87 63.87 9 65 C12.55 65.28 16.12 65.23 19.69 65.25 C20.68 65.27 21.68 65.29 22.7 65.31 C29.81 65.35 33.97 64.71 39.38 59.88 C41.64 55.86 41.68 52.51 41 48 C39.38 44.26 37.44 42.15 34 40 C31 39 29.03 38.88 25.89 38.9 C25.4 38.9 25.4 38.9 22.92 38.91 C22.4 38.92 22.4 38.92 19.81 38.94 C18.78 38.94 17.74 38.95 16.67 38.95 C14.12 38.96 11.56 38.98 9 39 Z " fill="#082438" transform="translate(883,301)" />
<path d="M0 0 C3.48 2.87 5.77 6.4 6.51 10.91 C6.62 13.28 6.61 15.62 6.55 17.99 C6.54 18.85 6.54 19.7 6.53 20.59 C6.51 23.3 6.46 26 6.41 28.71 C6.39 30.56 6.37 32.41 6.35 34.26 C6.31 38.76 6.24 43.27 6.16 47.78 C3.52 47.78 0.88 47.78 -1.84 47.78 C-2.01 47.12 -2.01 47.12 -2.84 43.78 C-3.61 44.4 -4.37 45.01 -5.16 45.65 C-10.22 48.98 -16.39 50.34 -22.38 49.37 C-27.72 47.73 -32.25 45.5 -35.16 40.53 C-36.39 35.59 -36.37 31.46 -34.84 26.59 C-31.5 21.89 -26.57 18.77 -20.84 17.78 C-18.72 17.68 -16.59 17.65 -14.47 17.65 C-13.37 17.65 -12.27 17.65 -11.13 17.64 C-7.95 17.77 -4.97 18.18 -1.84 18.78 C-2.07 17.17 -2.33 15.57 -2.59 13.96 C-2.73 13.07 -2.87 12.18 -3.02 11.26 C-4.04 8.18 -5.03 7.34 -7.84 5.78 C-14.3 3.92 -19.13 4.76 -24.93 7.96 C-26.84 8.78 -26.84 8.78 -29.84 7.78 C-31.03 5.21 -31.03 5.21 -31.84 2.78 C-30.6 1.96 -29.35 1.15 -28.09 0.34 C-27.4 -0.11 -26.7 -0.57 -25.98 -1.03 C-17.87 -5.55 -7.95 -3.94 0 0 Z M-26 28.14 C-27.59 31.23 -27.49 34.41 -26.84 37.78 C-24.03 41.11 -21.12 42.48 -16.74 42.88 C-11.98 42.62 -8.05 40.77 -4.41 37.78 C-2.06 34.77 -1.72 32.29 -1.78 28.59 C-1.79 27.87 -1.8 27.16 -1.81 26.42 C-1.82 25.88 -1.83 25.34 -1.84 24.78 C-9.39 23.19 -20.36 21.52 -26 28.14 Z " fill="#082438" transform="translate(532.84375,326.22265625)" />
<path d="M0 0 C4.19 3.58 6.95 7.54 8 13 C8 16.63 8 20.26 8 24 C-4.87 24 -17.74 24 -31 24 C-27.11 35.67 -27.11 35.67 -20.69 39.31 C-13.93 41.04 -8.22 40.05 -2 37 C0.5 35.31 0.5 35.31 2 34 C2.83 34.66 2.83 34.66 7 38 C5.61 41.38 4.2 42.84 1.06 44.69 C0.37 45.1 -0.32 45.52 -1.03 45.95 C-7.66 49.48 -17.39 49.09 -24.59 47.39 C-30.56 44.71 -35.17 39.61 -38.1 33.83 C-41.04 26.06 -41.03 17.94 -38.11 10.17 C-34.96 4.02 -30.46 -0.56 -24 -3 C-15.65 -5.42 -7.5 -4.41 0 0 Z M-27.44 8.31 C-29.16 11.28 -29.52 13.64 -30 17 C-9.59 18.4 -9.59 18.4 0 17 C-0.45 12.13 -1.47 9.44 -5 6 C-12.66 1.45 -20.88 2.09 -27.44 8.31 Z " fill="#082438" transform="translate(657,327)" />
<path d="M0 0 C4.02 2.35 7.07 5.58 8.68 9.98 C8.96 12.96 8.92 15.92 8.88 18.91 C8.88 19.77 8.87 20.63 8.87 21.51 C8.86 24.25 8.83 26.99 8.81 29.73 C8.8 31.6 8.79 33.46 8.78 35.32 C8.76 39.87 8.72 44.43 8.68 48.98 C6.04 48.98 3.4 48.98 0.68 48.98 C0.52 48.32 0.52 48.32 -0.32 44.98 C-0.78 45.3 -0.78 45.3 -3.13 46.92 C-8.99 50.96 -15.48 50.42 -22.32 49.98 C-26.53 49.17 -28.76 46.71 -31.19 43.3 C-33.57 39.12 -34.18 35.71 -33.32 30.98 C-31.66 25.72 -28.91 23.68 -24.35 20.96 C-20.9 19.3 -17.79 18.86 -13.99 18.89 C-13.59 18.89 -13.59 18.89 -11.57 18.9 C-10.74 18.9 -9.92 18.91 -9.07 18.92 C-8.23 18.93 -7.39 18.93 -6.52 18.94 C-4.45 18.95 -2.38 18.96 -0.32 18.98 C-0.43 17.7 -0.55 16.42 -0.68 15.14 C-0.72 14.78 -0.72 14.78 -0.89 12.97 C-1.32 10.98 -1.32 10.98 -3.44 8.55 C-9.08 5.48 -13.47 5.66 -19.45 7.37 C-21.79 8.14 -24.06 9 -26.32 9.98 C-27.94 8.23 -27.94 8.23 -29.32 5.98 C-28.49 3.51 -27.69 2.26 -25.57 0.72 C-17.4 -3.06 -8.37 -3.69 0 0 Z M-23.48 29.34 C-25.06 32.44 -24.97 35.62 -24.32 38.98 C-21.85 41.81 -20.01 42.77 -16.44 43.86 C-12.08 44.03 -8.4 43.54 -4.83 40.88 C-1.18 37.4 0.62 34.76 0.81 29.73 C0.77 28.83 0.73 27.92 0.68 26.98 C-6.8 24.44 -17.57 22.44 -23.48 29.34 Z " fill="#082438" transform="translate(990.31640625,325.015625)" />
<path d="M0 0 C4.69 3.16 8 7.25 10.51 12.27 C11.29 16.58 11.07 21.02 11.07 25.4 C-1.8 25.4 -14.67 25.4 -27.93 25.4 C-25.28 35.97 -25.28 35.97 -23.93 38.4 C-21.49 39.65 -21.49 39.65 -18.93 40.4 C-18.43 40.56 -18.43 40.56 -15.93 41.4 C-9.17 42.21 -4.7 40.79 1.07 37.4 C2.4 36.72 3.74 36.05 5.07 35.4 C6.39 37.38 7.71 39.36 9.07 41.4 C7.87 42.37 6.66 43.32 5.45 44.27 C4.78 44.81 4.1 45.34 3.41 45.89 C-3.58 50.4 -11.9 50.29 -19.93 49.4 C-26.12 47.81 -30.53 43.72 -33.93 38.4 C-36.57 33.48 -37.48 29.14 -37.43 23.59 C-37.42 22.89 -37.41 22.19 -37.41 21.47 C-37.15 14.28 -35.25 8.66 -30.02 3.53 C-21.27 -3.49 -10.18 -5.16 0 0 Z M-23.93 8.4 C-26.07 11.43 -27.93 14.62 -27.93 18.4 C-23.98 18.57 -20.02 18.73 -16.07 18.88 C-14.73 18.93 -13.38 18.99 -12.04 19.05 C-10.11 19.13 -8.18 19.2 -6.25 19.28 C-5.64 19.3 -5.04 19.33 -4.42 19.36 C-0.15 19.51 -0.15 19.51 2.07 18.4 C1.69 13.01 -0.02 9.96 -3.93 6.4 C-10.59 2.54 -18.02 3.76 -23.93 8.4 Z " fill="#082438" transform="translate(1131.92578125,325.6015625)" />
<path d="M0 0 C1 1 1 1 1.13 2.59 C1.13 3.22 1.13 3.85 1.12 4.5 C1.13 4.81 1.13 4.81 1.13 6.41 C1 8 1 8 0 9 C-1.56 9.22 -3.12 9.42 -4.69 9.62 C-9.69 10.56 -11.9 12.25 -14.94 16.25 C-17.2 19.98 -17.21 23.63 -17.32 27.86 C-17.34 28.52 -17.36 29.18 -17.38 29.86 C-17.44 31.97 -17.5 34.08 -17.56 36.19 C-17.61 37.62 -17.65 39.05 -17.69 40.48 C-17.8 43.99 -17.9 47.49 -18 51 C-20.97 51 -23.94 51 -27 51 C-27 34.83 -27 18.66 -27 2 C-24.03 2 -21.06 2 -18 2 C-17.67 3.98 -17.34 5.96 -17 8 C-16.46 7.24 -15.93 6.47 -15.38 5.69 C-11.19 0.52 -6.33 -0.5 0 0 Z " fill="#082438" transform="translate(1198,323)" />
<path d="M0 0 C3.22 -0.72 5.82 -0.96 9 0 C11.64 3.41 12.91 7.34 14.31 11.38 C14.72 12.44 15.12 13.5 15.53 14.59 C16.33 16.7 17.11 18.81 17.88 20.93 C19.25 24.68 20.76 28.37 22.29 32.06 C23 34 23 34 23 36 C23.66 36 24.32 36 25 36 C25.16 35.5 25.32 35 25.48 34.49 C27.53 28.14 29.91 21.94 32.39 15.75 C33.07 14.04 33.74 12.33 34.42 10.62 C34.85 9.53 35.29 8.44 35.72 7.35 C36.11 6.37 36.5 5.39 36.9 4.38 C38 2 38 2 40 0 C41.91 -0.27 41.91 -0.27 44.06 -0.25 C44.78 -0.26 45.49 -0.26 46.22 -0.27 C46.81 -0.18 47.4 -0.09 48 0 C48.16 0.33 48.16 0.33 49 2 C48.28 4.13 48.28 4.13 47.08 6.79 C46.64 7.78 46.19 8.77 45.74 9.79 C45.24 10.88 44.75 11.97 44.25 13.06 C43.75 14.19 43.24 15.31 42.74 16.44 C41.69 18.78 40.64 21.13 39.58 23.47 C37.12 28.95 34.72 34.44 32.31 39.94 C31.4 42 30.5 44.07 29.59 46.13 C27.92 49.91 26.26 53.69 24.6 57.46 C23.88 59.1 23.16 60.74 22.44 62.38 C22.11 63.11 21.79 63.85 21.46 64.61 C21.31 64.95 21.31 64.95 20.56 66.65 C20.43 66.94 20.43 66.94 19.79 68.4 C18.97 70.06 18.14 71.54 17 73 C15.09 73.36 15.09 73.36 12.94 73.31 C12.22 73.31 11.51 73.3 10.78 73.3 C10.19 73.2 9.6 73.1 9 73 C8.67 72.34 8.34 71.68 8 71 C8.7 69.12 8.7 69.12 9.84 66.86 C10.24 66.04 10.65 65.21 11.06 64.36 C11.93 62.64 12.8 60.91 13.66 59.18 C14.07 58.35 14.48 57.53 14.9 56.67 C15.28 55.92 15.65 55.17 16.04 54.39 C17.62 50.44 18.38 47.36 17.21 43.2 C16.79 42.25 16.37 41.3 15.94 40.32 C15.71 39.8 15.48 39.28 15.25 38.74 C14.51 37.05 13.76 35.37 13 33.69 C12.49 32.52 11.98 31.36 11.48 30.2 C10.47 27.88 9.45 25.56 8.43 23.25 C6.5 18.88 4.64 14.48 2.81 10.06 C2.52 9.38 2.23 8.69 1.93 7.99 C0.75 5.15 0 3.12 0 0 Z " fill="#082438" transform="translate(1220,324)" />
</svg>