<svg xmlns="http://www.w3.org/2000/svg" width="970" height="194" viewBox="0 0 970 194" role="img" aria-label="DM-labs.io horizontal-small flat-dark"><title>DM-labs.io / horizontal-small flat-dark</title><defs><linearGradient id="old-pearl" gradientUnits="userSpaceOnUse" x1="245" y1="100" x2="820" y2="765"><stop stop-color="#70D7F0"/><stop offset=".19" stop-color="#C9E5F5"/><stop offset=".4" stop-color="#8DAAEF"/><stop offset=".69" stop-color="#B79BE7"/><stop offset=".83" stop-color="#A68CE8"/><stop offset="1" stop-color="#597ACE"/></linearGradient><radialGradient id="old-shade" gradientUnits="userSpaceOnUse" cx="170" cy="830" r="700"><stop stop-color="#234D9D" stop-opacity=".68"/><stop offset=".65" stop-color="#5268E8" stop-opacity=".12"/><stop offset="1" stop-color="#5268E8" stop-opacity="0"/></radialGradient><linearGradient id="old-facet" gradientUnits="userSpaceOnUse" x1="245" y1="140" x2="550" y2="820"><stop stop-color="#FFFFFF" stop-opacity=".65"/><stop offset=".35" stop-color="#FFFFFF" stop-opacity="0"/><stop offset=".59" stop-color="#EEE9F8" stop-opacity=".06"/><stop offset=".78" stop-color="#EEE9F8" stop-opacity=".24"/><stop offset="1" stop-color="#FFFFFF" stop-opacity="0"/></linearGradient><linearGradient id="old-flat" x1="0" y1="0" x2="1" y2="1"><stop stop-color="#70D7F0"/><stop offset=".5" stop-color="#7189DD"/><stop offset="1" stop-color="#A68CE8"/></linearGradient><linearGradient id="old-rim" x1="0" y1="0" x2="1" y2="1"><stop stop-color="#E5F4FA" stop-opacity=".9"/><stop offset=".5" stop-color="#E5F4FA" stop-opacity=".12"/><stop offset="1" stop-color="#5268E8" stop-opacity=".5"/></linearGradient><clipPath id="old-body"><path d="M267 109 C223 90 193 117 193 168 L193 809 C193 865 220 887 267 872 C484 797 725 670 864 558 C911 520 913 483 866 440 C708 299 468 171 267 109 Z M313 189 C280 177 260 193 260 235 L260 735 C260 779 281 800 316 788 C491 729 664 622 772 541 C807 515 810 492 775 465 C646 357 473 253 313 189 Z M340 225 C307 213 288 235 288 274 L288 712 C288 747 305 762 340 750 C493 696 649 609 724 543 C758 514 762 494 730 466 C621 372 465 276 340 225 Z M397 321 C370 307 353 321 353 356 L353 621 C353 654 370 670 397 658 C506 614 588 565 636 526 C657 509 657 492 636 475 C559 414 471 359 397 321 Z M417 370 C402 362 393 371 393 390 L393 590 C393 608 403 616 420 607 C477 581 545 539 580 515 C601 501 601 489 583 475 C535 439 467 397 417 370 Z" clip-rule="evenodd"/></clipPath><clipPath id="newbody"><path d="M267 109 C223 90 193 117 193 168 L193 809 C193 865 220 887 267 872 C484 797 725 670 864 558 C911 520 913 483 866 440 C708 299 468 171 267 109 Z M313 189 C280 177 260 193 260 235 L260 735 C260 779 281 800 316 788 C491 729 664 622 772 541 C807 515 810 492 775 465 C646 357 473 253 313 189 Z M352.6 244.25 C321.91 233.09 304.24 253.55 304.24 289.82 L304.24 697.16 C304.24 729.71 320.05 743.66 352.6 732.5 C494.89 682.28 639.97 601.37 709.72 539.99 C741.34 513.02 745.06 494.42 715.3 468.38 C613.93 380.96 468.85 291.68 352.6 244.25 Z M408.07 337.11 C383.5 324.37 368.03 337.11 368.03 368.96 L368.03 610.11 C368.03 640.14 383.5 654.7 408.07 643.78 C507.26 603.74 581.88 559.15 625.56 523.66 C644.67 508.19 644.67 492.72 625.56 477.25 C555.49 421.74 475.41 371.69 408.07 337.11 Z M438.63 397.3 C426.78 390.98 419.67 398.09 419.67 413.1 L419.67 571.1 C419.67 585.32 427.57 591.64 441 584.53 C486.03 563.99 539.75 530.81 567.4 511.85 C583.99 500.79 583.99 491.31 569.77 480.25 C531.85 451.81 478.13 418.63 438.63 397.3 Z" clip-rule="evenodd"/></clipPath>
<linearGradient id="pigment" gradientUnits="userSpaceOnUse" x1="240" y1="165" x2="800" y2="700"><stop stop-color="#55D6EC"/><stop offset=".24" stop-color="#5DBBEB"/><stop offset=".51" stop-color="#547ADC"/><stop offset=".77" stop-color="#9B79DE"/><stop offset="1" stop-color="#C796EB"/></linearGradient>
<linearGradient id="edge" gradientUnits="userSpaceOnUse" x1="240" y1="100" x2="820" y2="850"><stop stop-color="#6EE5ED"/><stop offset=".22" stop-color="#2478AD"/><stop offset=".58" stop-color="#3645A0"/><stop offset="1" stop-color="#6951A0"/></linearGradient>
<radialGradient id="lower" gradientUnits="userSpaceOnUse" cx="230" cy="870" r="635"><stop stop-color="#163F8E" stop-opacity=".72"/><stop offset=".72" stop-color="#4165CB" stop-opacity=".10"/><stop offset="1" stop-color="#4165CB" stop-opacity="0"/></radialGradient>
<linearGradient id="bevel" gradientUnits="userSpaceOnUse" x1="170" y1="110" x2="865" y2="800"><stop stop-color="#E8FFFF"/><stop offset=".2" stop-color="#B2EDFA"/><stop offset=".44" stop-color="#5C8BD8"/><stop offset=".65" stop-color="#F0DFFF"/><stop offset="1" stop-color="#7357B1"/></linearGradient>
<linearGradient id="pearlwash" gradientUnits="userSpaceOnUse" x1="180" y1="160" x2="530" y2="870"><stop stop-color="#F4FFFF" stop-opacity=".26"/><stop offset=".21" stop-color="#C9F3FB" stop-opacity=".08"/><stop offset=".37" stop-color="#A8B8FF" stop-opacity="0"/><stop offset=".6" stop-color="#F6E8FF" stop-opacity=".14"/><stop offset=".74" stop-color="#F6E8FF" stop-opacity=".04"/><stop offset="1" stop-color="#A68CE8" stop-opacity="0"/></linearGradient>
<linearGradient id="glassface" gradientUnits="userSpaceOnUse" x1="220" y1="120" x2="805" y2="780"><stop stop-color="#89E4F0"/><stop offset=".27" stop-color="#7CD1F3"/><stop offset=".57" stop-color="#7395E6"/><stop offset=".82" stop-color="#C29DEC"/><stop offset="1" stop-color="#B888E4"/></linearGradient>
<linearGradient id="glassrim" gradientUnits="userSpaceOnUse" x1="190" y1="85" x2="780" y2="880"><stop stop-color="#E9FEFF"/><stop offset=".23" stop-color="#318DC8"/><stop offset=".43" stop-color="#C5ECFF"/><stop offset=".64" stop-color="#7979CD"/><stop offset=".81" stop-color="#ECD6FF"/><stop offset="1" stop-color="#446BB2"/></linearGradient></defs><svg x="32" y="32" width="119.08" height="130" viewBox="145 95 916 1000" overflow="visible"><g transform="translate(145 95) scale(1.25) translate(-190 -99)"><path d="M267 109 C223 90 193 117 193 168 L193 809 C193 865 220 887 267 872 C484 797 725 670 864 558 C911 520 913 483 866 440 C708 299 468 171 267 109 Z M313 189 C280 177 260 193 260 235 L260 735 C260 779 281 800 316 788 C491 729 664 622 772 541 C807 515 810 492 775 465 C646 357 473 253 313 189 Z M352.6 244.25 C321.91 233.09 304.24 253.55 304.24 289.82 L304.24 697.16 C304.24 729.71 320.05 743.66 352.6 732.5 C494.89 682.28 639.97 601.37 709.72 539.99 C741.34 513.02 745.06 494.42 715.3 468.38 C613.93 380.96 468.85 291.68 352.6 244.25 Z M408.07 337.11 C383.5 324.37 368.03 337.11 368.03 368.96 L368.03 610.11 C368.03 640.14 383.5 654.7 408.07 643.78 C507.26 603.74 581.88 559.15 625.56 523.66 C644.67 508.19 644.67 492.72 625.56 477.25 C555.49 421.74 475.41 371.69 408.07 337.11 Z M438.63 397.3 C426.78 390.98 419.67 398.09 419.67 413.1 L419.67 571.1 C419.67 585.32 427.57 591.64 441 584.53 C486.03 563.99 539.75 530.81 567.4 511.85 C583.99 500.79 583.99 491.31 569.77 480.25 C531.85 451.81 478.13 418.63 438.63 397.3 Z" fill="url(#pigment)" fill-rule="evenodd" /></g></svg><g fill="#FFFFFF" transform="translate(179.07999999999998 53) scale(1.2170389778774209) translate(-3.7261962890625 -28.90625)"><path d="M7.2262 100 L40.4091 100 Q54.9522 100 63.591 90.9771 Q72.2298 81.9542 72.2298 65.6738 L72.2298 62.6694 Q72.2298 46.2837 63.7169 37.595 Q55.204 28.9062 40.4091 28.9062 L7.2262 28.9062 Q3.7262 28.9062 3.7262 32.4062 L3.7262 96.5 Q3.7262 100 7.2262 100 Z M30.2498 80.2385 L30.2498 49.5634 Q30.2498 47.9202 31.893 47.9202 L37.0964 47.9202 Q40.5823 47.9233 42.622 50.4208 Q44.6617 52.9182 44.6617 59.9236 L44.6617 68.9941 Q44.6617 75.9804 42.4858 78.931 Q40.3099 81.8817 37.0964 81.8817 L31.893 81.8817 Q30.2498 81.8817 30.2498 80.2385 Z "/><path d="M81.8485 100 L101.0876 100 Q104.5876 100 104.5869 96.5 L104.5815 69.8349 Q104.5815 68.4479 104.541 66.9113 Q104.5006 65.3748 104.4373 63.9114 L104.7012 63.9114 Q105.0171 65.3374 105.3379 66.8373 Q105.6587 68.3372 106.0906 69.8067 L115.876 96.7108 Q117.0723 100 120.5723 100 L135.5488 100 Q139.0488 100 140.2235 96.703 L149.7971 69.8334 Q150.2205 68.3578 150.5367 66.9006 Q150.853 65.4434 151.2261 63.9084 L151.4908 63.9084 Q151.3878 65.3397 151.384 66.89 Q151.3802 68.4402 151.3802 69.873 L151.3761 96.5 Q151.3756 100 154.8756 100 L174.7471 100 Q178.2471 100 178.2471 96.5 L178.2471 32.4062 Q178.2471 28.9062 174.7471 28.9062 L144.6804 28.9062 Q141.1804 28.9062 139.8908 32.16 L129.7356 57.7835 Q129.3167 59.1888 129.0093 60.3897 Q128.7018 61.5906 128.4126 62.9517 L128.2478 62.9517 Q127.9717 61.5906 127.6642 60.3897 Q127.3567 59.1888 126.9379 57.7835 L116.7 32.1564 Q115.4015 28.9062 111.9015 28.9062 L81.8485 28.9062 Q78.3485 28.9062 78.3485 32.4062 L78.3485 96.5 Q78.3485 100 81.8485 100 Z "/><path d="M223.4479 78.1230 L196.7643 78.1230 L196.7643 71.2949 L223.4479 71.2949 Z " stroke="#FFFFFF" stroke-width="0.6" stroke-linejoin="round"/><path d="M281.7986 100.0000 L262.6619 100.0000 L262.6619 42.6797 L250.4432 42.6797 L250.4432 36.6152 L269.6697 36.6152 L269.6697 93.9355 L281.7986 93.9355 Z " stroke="#FFFFFF" stroke-width="0.6" stroke-linejoin="round"/><path d="M342.8897 100.0000 L335.9268 100.0000 Q335.0732 97.1699 335.0732 92.4531 Q329.0986 101.2129 318.8115 101.2129 Q313.6006 101.2129 309.6250 97.5068 Q305.6494 93.8008 305.6494 87.9609 Q305.6494 84.5020 307.0420 81.8516 Q308.4346 79.2012 311.1299 77.3818 Q313.8252 75.5625 317.6885 74.5068 Q321.5518 73.4512 326.8525 73.0469 L334.7139 72.4180 L334.7139 70.1719 Q334.7139 58.1328 323.4834 58.1328 Q320.8330 58.1328 316.7676 59.2783 Q312.7022 60.4238 309.7822 61.9961 L307.9404 56.9648 Q317.5088 52.0684 325.7295 52.0684 Q341.7217 52.0684 341.7217 69.0039 L341.7217 89.1289 Q341.7217 95.2383 342.8897 100.0000 Z M334.7139 86.1191 L334.7139 77.6289 Q325.2354 78.4824 321.7090 79.2236 Q318.1826 79.9648 315.5996 81.9863 Q313.0166 84.0078 313.0166 87.4668 Q313.0166 90.6113 315.2178 92.5430 Q317.4189 94.4746 320.8330 94.4746 Q324.5615 94.4746 328.2451 92.2510 Q331.9287 90.0273 334.7139 86.1191 Z " stroke="#FFFFFF" stroke-width="0.6" stroke-linejoin="round"/><path d="M369.1662 59.2559 Q371.5022 56.0215 375.4777 54.0449 Q379.4533 52.0684 383.8557 52.0684 Q392.0314 52.0684 396.5910 58.6270 Q401.1506 65.1855 401.1506 75.8770 Q401.1506 86.7031 396.2990 93.9580 Q391.4475 101.2129 383.3166 101.2129 Q378.9592 101.2129 375.1633 99.0342 Q371.3674 96.8555 369.1662 93.2617 L369.1662 100.0000 L362.1584 100.0000 L362.1584 36.6152 L369.1662 36.6152 Z M369.1662 66.2188 L369.1662 85.6699 Q371.1428 89.6230 374.5119 92.2734 Q377.8811 94.9238 381.4748 94.9238 Q387.1350 94.9238 390.4816 89.5332 Q393.8283 84.1426 393.8283 76.2812 Q393.8283 68.1953 390.6389 63.1641 Q387.4494 58.1328 381.7443 58.1328 Q374.3322 58.1328 369.1662 66.2188 Z " stroke="#FFFFFF" stroke-width="0.6" stroke-linejoin="round"/><path d="M449.8432 59.8848 Q443.9584 57.9531 438.7475 57.9531 Q433.0424 57.9531 429.7182 59.8623 Q426.3939 61.7715 426.3939 64.9609 Q426.3939 66.9824 427.9213 68.4873 Q429.4486 69.9922 434.0307 71.2949 L440.7240 73.2266 Q445.3510 74.5293 448.2709 76.3486 Q451.1908 78.1680 452.6508 80.7510 Q454.1107 83.3340 454.1107 86.7480 Q454.1107 93.4414 448.4955 97.3271 Q442.8803 101.2129 434.2104 101.2129 Q425.5854 101.2129 419.9701 98.6074 L421.3178 92.5430 Q427.2025 95.3281 433.9408 95.3281 Q439.7807 95.3281 443.4418 93.1494 Q447.1029 90.9707 447.1029 87.3770 Q447.1029 84.9512 445.2836 83.0420 Q443.4643 81.1328 436.7260 79.0664 Q431.2904 77.4043 428.7299 76.5732 Q426.1693 75.7422 423.9682 74.1250 Q421.7670 72.5078 420.6215 70.2617 Q419.4760 68.0156 419.4760 65.2305 Q419.4760 59.1660 424.7768 55.6172 Q430.0775 52.0684 438.8373 52.0684 Q444.4975 52.0684 451.4154 54.0000 Z " stroke="#FFFFFF" stroke-width="0.6" stroke-linejoin="round"/><path d="M492.8307 89.7129 Q495.2115 89.7129 496.8287 91.3301 Q498.4459 92.9473 498.4459 95.3281 Q498.4459 97.7539 496.8063 99.4834 Q495.1666 101.2129 492.8307 101.2129 Q490.5397 101.2129 488.9225 99.4834 Q487.3053 97.7539 487.3053 95.3281 Q487.3053 92.9023 488.9000 91.3076 Q490.4947 89.7129 492.8307 89.7129 Z " stroke="#FFFFFF" stroke-width="0.6" stroke-linejoin="round"/><path d="M552.6639 35.4922 Q554.6404 35.4922 556.0330 36.9072 Q557.4256 38.3223 557.4256 40.2988 Q557.4256 42.3652 556.0555 43.7578 Q554.6854 45.1504 552.6639 45.1504 Q550.8221 45.1504 549.4070 43.6904 Q547.9920 42.2305 547.9920 40.2988 Q547.9920 38.3672 549.4070 36.9297 Q550.8221 35.4922 552.6639 35.4922 Z M556.0779 100.0000 L549.0701 100.0000 L549.0701 59.2559 L535.2791 59.2559 L535.2791 53.1914 L556.0779 53.1914 Z " stroke="#FFFFFF" stroke-width="0.6" stroke-linejoin="round"/><path d="M606.1182 52.0684 Q615.7764 52.0684 621.4814 58.8066 Q627.1865 65.5449 627.1865 76.5508 Q627.1865 87.6465 621.4814 94.4297 Q615.7764 101.2129 606.1182 101.2129 Q596.4150 101.2129 590.7324 94.4521 Q585.0498 87.6914 585.0498 76.5508 Q585.0498 65.5000 590.7549 58.7842 Q596.4600 52.0684 606.1182 52.0684 Z M606.1182 95.1035 Q612.4971 95.1035 616.1807 89.7129 Q619.8643 84.3223 619.8643 76.6406 Q619.8643 68.5547 616.2256 63.3438 Q612.5869 58.1328 606.1182 58.1328 Q599.6045 58.1328 596.0107 63.2764 Q592.4170 68.4199 592.4170 76.6406 Q592.4170 84.4570 596.0557 89.7803 Q599.6943 95.1035 606.1182 95.1035 Z " stroke="#FFFFFF" stroke-width="0.6" stroke-linejoin="round"/></g></svg>