<svg xmlns="http://www.w3.org/2000/svg" width="1064" height="651" viewBox="0 0 1064 651" role="img"><title>Sunday Boat / primary / blue</title><desc>Combined stacked wordmark and paired fish. Transparent background.</desc><g transform="translate(32,28) scale(1.7455053237912372)"><path fill="#154CDB" d="M47.5 162.0Q25.5 162.0 16.15 152.7Q6.800000000000001 143.4 5.9 121.8Q5.800000000000001 118.6 5.800000000000001 114.75Q5.800000000000001 110.9 6.0 107.05Q6.2 103.19999999999999 6.7 100.0H34.9Q34.5 107.3 34.400000000000006 114.4Q34.300000000000004 121.5 34.9 127.4Q35.4 132.3 38.45 134.95Q41.5 137.6 47.5 137.6Q53.400000000000006 137.6 56.150000000000006 134.95Q58.900000000000006 132.3 59.5 127.4Q59.900000000000006 124.0 60.050000000000004 120.65Q60.2 117.3 60.050000000000004 113.94999999999999Q59.900000000000006 110.6 59.5 107.19999999999999Q59.1 103.0 56.900000000000006 99.6Q54.7 96.19999999999999 49.900000000000006 95.0L33.5 90.8Q23.1 88.1 17.0 83.05Q10.9 78.0 8.15 70.5Q5.4 63.0 5.1000000000000005 53.0Q5.0 48.599999999999994 5.0 45.14999999999999Q5.0 41.69999999999999 5.1000000000000005 38.0Q5.7 23.69999999999999 9.950000000000001 14.899999999999991Q14.200000000000001 6.099999999999994 23.3 2.049999999999997Q32.4 -2.0 47.5 -2.0Q68.8 -2.0 78.4 7.25Q88.0 16.5 88.9 38.0Q89.10000000000001 42.3 88.95000000000002 48.49999999999999Q88.80000000000001 54.69999999999999 88.5 60.0H59.7Q60.0 53.099999999999994 60.1 46.199999999999996Q60.2 39.3 59.900000000000006 32.39999999999999Q59.800000000000004 27.599999999999994 56.45 25.0Q53.1 22.400000000000006 47.5 22.400000000000006Q41.5 22.400000000000006 38.6 25.0Q35.7 27.599999999999994 35.1 32.39999999999999Q34.5 37.5 34.5 42.699999999999996Q34.5 47.89999999999999 35.1 53.0Q35.6 57.0 37.900000000000006 60.3Q40.2 63.599999999999994 45.300000000000004 64.8L59.5 68.19999999999999Q70.7 70.89999999999999 77.15 76.14999999999999Q83.60000000000001 81.39999999999999 86.45000000000002 89.15Q89.30000000000001 96.9 89.7 107.19999999999999Q89.80000000000001 109.5 89.80000000000001 112.0Q89.80000000000001 114.5 89.70000000000002 117.0Q89.60000000000001 119.5 89.5 121.8Q88.60000000000001 143.4 79.15 152.7Q69.7 162.0 47.5 162.0Z"/><path fill="#154CDB" d="M143.60000000000002 162.0Q121.10000000000001 162.0 111.4 152.7Q101.70000000000002 143.4 101.4 121.8Q101.00000000000001 91.6 101.00000000000001 60.849999999999994Q101.00000000000001 30.099999999999994 101.4 0.0H131.4Q131.0 20.099999999999994 130.95 41.89999999999999Q130.9 63.69999999999999 131.05 85.5Q131.20000000000002 107.3 131.4 127.4Q131.4 132.3 134.60000000000002 134.95Q137.8 137.6 143.60000000000002 137.6Q149.5 137.6 152.55 134.95Q155.60000000000002 132.3 155.60000000000002 127.4Q155.8 107.3 155.95000000000002 85.5Q156.10000000000002 63.69999999999999 156.05 41.89999999999999Q156.0 20.099999999999994 155.60000000000002 0.0H185.60000000000002Q186.10000000000002 30.099999999999994 186.10000000000002 60.849999999999994Q186.10000000000002 91.6 185.60000000000002 121.8Q185.3 143.4 175.65 152.7Q166.0 162.0 143.60000000000002 162.0Z"/><path fill="#154CDB" d="M200.20000000000002 160.0V0.0H243.60000000000002L255.60000000000002 51.0L266.6 133.6H271.8L266.20000000000005 68.6L263.8 0.0H292.8V160.0H247.20000000000002L235.20000000000002 107.6L227.00000000000003 26.19999999999999H221.40000000000003L226.60000000000002 98.6L229.20000000000002 160.0Z"/><path fill="#154CDB" d="M308.8 160.0V0.0H349.40000000000003Q371.90000000000003 0.0 381.95000000000005 9.549999999999997Q392.0 19.099999999999994 392.40000000000003 41.0Q392.70000000000005 54.932606541129815 392.80000000000007 67.44028741328046Q392.90000000000003 79.94796828543112 392.80000000000007 92.42398414271557Q392.70000000000005 104.9 392.40000000000003 118.8Q392.0 140.8 381.95000000000005 150.4Q371.90000000000003 160.0 349.40000000000003 160.0ZM338.8 133.6H349.40000000000003Q355.70000000000005 133.6 359.0 130.7Q362.3 127.8 362.43333333333334 122.38706896551724Q362.70000000000005 111.69999999999999 362.85 101.08270799347471Q363.0 90.46541598694942 363.0 79.88270799347471Q363.0 69.3 362.85 58.65Q362.70000000000005 48.0 362.40000000000003 37.39999999999999Q362.3 32.099999999999994 359.0 29.25Q355.70000000000005 26.400000000000006 349.40000000000003 26.400000000000006H338.8Z"/><path fill="#154CDB" d="M399.8 160.0 422.0 0.0H469.20000000000005L491.40000000000003 160.0H460.6L457.20000000000005 126.6H434.0L430.6 160.0ZM436.8 100.19999999999999H454.40000000000003L450.8 64.8L448.40000000000003 26.400000000000006H442.8L440.40000000000003 64.8Z"/><path fill="#154CDB" d="M511.40000000000003 160.0V122.0V121.8L481.40000000000003 0.0H512.0L520.6 38.8L523.6 85.8H529.2L532.2 38.8L540.8000000000001 0.0H571.4000000000001L541.4000000000001 121.8V122.0V160.0Z"/><path fill="#154CDB" d="M8.0 334.0V174.0H45.0Q67.4 174.0 77.7 183.05Q88.0 192.1 88.0 213.0Q88.0 215.8 88.0 218.4Q88.0 221.0 87.80000000000001 223.6Q87.10000000000001 234.5 82.9 240.95Q78.7 247.39999999999998 69.8 250.39999999999998V255.2Q79.0 258.2 83.30000000000001 264.75Q87.60000000000001 271.3 88.0 282.6Q88.2 285.9 88.2 288.7Q88.2 291.5 88.0 295.0Q87.10000000000001 315.8 77.25 324.9Q67.4 334.0 45.0 334.0ZM38.0 307.6H45.0Q51.300000000000004 307.6 54.650000000000006 304.25Q58.0 300.9 58.0 294.6Q58.0 291.9 58.0 289.29999999999995Q58.0 286.7 58.0 284.0Q58.0 274.1 54.95 269.95000000000005Q51.900000000000006 265.8 45.0 265.8H38.0ZM38.0 239.39999999999998H45.0Q51.300000000000004 239.39999999999998 54.650000000000006 235.04999999999998Q58.0 230.7 58.0 222.8Q58.0 219.89999999999998 58.0 217.04999999999998Q58.0 214.2 58.0 211.39999999999998Q58.0 206.1 54.650000000000006 203.25Q51.300000000000004 200.4 45.0 200.4H38.0Z"/><path fill="#154CDB" d="M144.1 336.0Q122.1 336.0 112.25 326.7Q102.4 317.4 101.9 295.8Q101.7 286.0 101.6 275.4Q101.5 264.8 101.5 253.9Q101.5 243.0 101.6 232.4Q101.7 221.8 101.9 212.0Q102.4 190.5 112.25 181.25Q122.1 172.0 144.1 172.0Q166.2 172.0 175.8 181.25Q185.4 190.5 186.10000000000002 212.0Q186.5 222.0 186.7 232.6Q186.9 243.2 186.9 254.04999999999998Q186.9 264.9 186.7 275.45Q186.5 286.0 186.10000000000002 295.8Q185.4 317.4 175.8 326.7Q166.2 336.0 144.1 336.0ZM144.1 311.6Q150.0 311.6 153.0 308.95000000000005Q156.0 306.3 156.1 301.4Q156.6 291.2 156.8 279.0Q157.0 266.8 157.0 253.9Q157.0 241.0 156.8 228.8Q156.6 216.6 156.1 206.39999999999998Q156.0 201.6 152.9 199.0Q149.8 196.4 144.1 196.4Q138.4 196.4 135.25 199.0Q132.1 201.6 131.9 206.39999999999998Q131.5 216.6 131.25 228.8Q131.0 241.0 131.0 253.9Q131.0 266.8 131.25 279.0Q131.5 291.2 131.9 301.4Q132.1 306.3 135.25 308.95000000000005Q138.4 311.6 144.1 311.6Z"/><path fill="#154CDB" d="M193.8 334.0 216.0 174.0H263.20000000000005L285.40000000000003 334.0H254.60000000000002L251.20000000000002 300.6H228.0L224.60000000000002 334.0ZM230.8 274.2H248.4L244.8 238.8L242.4 200.4H236.8L234.4 238.8Z"/><path fill="#154CDB" d="M304.7 334.0V200.4H279.0V174.0H360.40000000000003V200.4H334.70000000000005V334.0Z"/><g transform="translate(379.6,181.31496590909083) scale(0.9665000000000004)"><path fill="#154CDB" fill-rule="evenodd" d="M 0 46 C 26 3 68 -7 106 16 C 135 30 151 47 173 57 L 200 33 L 200 82 C 164 56 128 57 97 64 C 57 73 28 71 0 46 ZM 28.2 36 a 4.8 4.8 0 1 0 9.6 0 a 4.8 4.8 0 1 0 -9.6 0 Z"/><g transform="translate(200,154) rotate(180)"><path fill="#154CDB" fill-rule="evenodd" d="M 0 46 C 26 3 68 -7 106 16 C 135 30 151 47 173 57 L 200 33 L 200 82 C 164 56 128 57 97 64 C 57 73 28 71 0 46 ZM 28.2 36 a 4.8 4.8 0 1 0 9.6 0 a 4.8 4.8 0 1 0 -9.6 0 Z"/></g></g></g></svg>